<svg xmlns="http://www.w3.org/2000/svg" viewBox="0 0 100 100">
  <path transform="translate(15.71 82.35) skewX(-12)" fill="#ff2079" d="M26.574 1.204Q19.608 1.204 14.276-1.290Q8.944-3.784 5.934-8.428Q2.924-13.072 2.924-19.608L2.924-22.016L14.104-22.016L14.104-19.608Q14.104-14.190 17.458-11.481Q20.812-8.772 26.574-8.772Q32.422-8.772 35.303-11.094Q38.184-13.416 38.184-17.028Q38.184-19.522 36.765-21.070Q35.346-22.618 32.637-23.607Q29.928-24.596 26.058-25.456L24.080-25.886Q17.888-27.262 13.459-29.369Q9.030-31.476 6.665-34.916Q4.300-38.356 4.300-43.860Q4.300-49.364 6.923-53.277Q9.546-57.190 14.319-59.297Q19.092-61.404 25.542-61.404Q31.992-61.404 37.023-59.211Q42.054-57.018 44.935-52.675Q47.816-48.332 47.816-41.796L47.816-39.216L36.636-39.216L36.636-41.796Q36.636-45.236 35.303-47.343Q33.970-49.450 31.476-50.439Q28.982-51.428 25.542-51.428Q20.382-51.428 17.931-49.493Q15.480-47.558 15.480-44.204Q15.480-41.968 16.641-40.420Q17.802-38.872 20.124-37.840Q22.446-36.808 26.058-36.034L28.036-35.604Q34.486-34.228 39.259-32.078Q44.032-29.928 46.698-26.402Q49.364-22.876 49.364-17.372Q49.364-11.868 46.569-7.697Q43.774-3.526 38.657-1.161Q33.540 1.204 26.574 1.204"/>
  <path transform="translate(11.21 77.85) skewX(-12)" fill="#00dbe9" d="M26.574 1.204Q19.608 1.204 14.276-1.290Q8.944-3.784 5.934-8.428Q2.924-13.072 2.924-19.608L2.924-22.016L14.104-22.016L14.104-19.608Q14.104-14.190 17.458-11.481Q20.812-8.772 26.574-8.772Q32.422-8.772 35.303-11.094Q38.184-13.416 38.184-17.028Q38.184-19.522 36.765-21.070Q35.346-22.618 32.637-23.607Q29.928-24.596 26.058-25.456L24.080-25.886Q17.888-27.262 13.459-29.369Q9.030-31.476 6.665-34.916Q4.300-38.356 4.300-43.860Q4.300-49.364 6.923-53.277Q9.546-57.190 14.319-59.297Q19.092-61.404 25.542-61.404Q31.992-61.404 37.023-59.211Q42.054-57.018 44.935-52.675Q47.816-48.332 47.816-41.796L47.816-39.216L36.636-39.216L36.636-41.796Q36.636-45.236 35.303-47.343Q33.970-49.450 31.476-50.439Q28.982-51.428 25.542-51.428Q20.382-51.428 17.931-49.493Q15.480-47.558 15.480-44.204Q15.480-41.968 16.641-40.420Q17.802-38.872 20.124-37.840Q22.446-36.808 26.058-36.034L28.036-35.604Q34.486-34.228 39.259-32.078Q44.032-29.928 46.698-26.402Q49.364-22.876 49.364-17.372Q49.364-11.868 46.569-7.697Q43.774-3.526 38.657-1.161Q33.540 1.204 26.574 1.204"/>
</svg>
